<svg width="410" height="71" viewBox="0 0 410 71" fill="none" xmlns="http://www.w3.org/2000/svg">
<rect x="0.65261" y="1.06374" width="408.534" height="69.1766" rx="25.4518" fill="white"/>
<rect x="0.65261" y="1.06374" width="408.534" height="69.1766" rx="25.4518" stroke="#180BA7" stroke-width="1.30522"/>
<path opacity="0.5" d="M46.3398 30.7866C46.3398 41.397 55.5221 47.0502 62.242 52.1121C64.6129 53.8969 66.897 55.5791 69.1812 55.5791C71.4653 55.5791 73.7495 53.8991 76.1204 52.11C82.8426 47.0524 92.0225 41.397 92.0225 30.7888C92.0225 20.1784 79.4598 12.6532 69.1812 22.8556C58.9026 12.651 46.3398 20.1763 46.3398 30.7866Z" fill="#5271FF"/>
<path d="M79.4573 39.8436C73.804 33.9176 66.8945 38.2901 66.8945 44.4517C66.8945 50.0372 71.0379 53.2555 74.5647 55.9981L74.6652 56.0766L75.6405 56.8403C76.9447 57.8766 78.201 58.8541 79.4573 58.8541C80.7135 58.8541 81.9698 57.8766 83.2741 56.8403C86.9698 53.9013 92.02 50.6154 92.02 44.4517C92.02 42.4291 91.2754 40.5963 90.0716 39.2588C87.6162 36.5293 83.2535 35.8639 79.4573 39.8436Z" fill="#180BA7"/>
<path d="M143.721 35.2163C143.721 33.2749 144.141 31.5483 144.981 30.0363C145.821 28.5056 146.988 27.3203 148.481 26.4803C149.993 25.6216 151.701 25.1923 153.605 25.1923C155.938 25.1923 157.936 25.8083 159.597 27.0403C161.258 28.2723 162.369 29.9523 162.929 32.0803H157.665C157.273 31.2589 156.713 30.6336 155.985 30.2043C155.276 29.7749 154.464 29.5603 153.549 29.5603C152.074 29.5603 150.88 30.0736 149.965 31.1003C149.05 32.1269 148.593 33.4989 148.593 35.2163C148.593 36.9336 149.05 38.3056 149.965 39.3323C150.88 40.3589 152.074 40.8723 153.549 40.8723C154.464 40.8723 155.276 40.6576 155.985 40.2283C156.713 39.7989 157.273 39.1736 157.665 38.3523H162.929C162.369 40.4803 161.258 42.1603 159.597 43.3923C157.936 44.6056 155.938 45.2123 153.605 45.2123C151.701 45.2123 149.993 44.7923 148.481 43.9523C146.988 43.0936 145.821 41.9083 144.981 40.3963C144.141 38.8843 143.721 37.1576 143.721 35.2163ZM172.973 45.2963C171.442 45.2963 170.061 44.9696 168.829 44.3163C167.616 43.6629 166.654 42.7296 165.945 41.5163C165.254 40.3029 164.909 38.8843 164.909 37.2603C164.909 35.6549 165.264 34.2456 165.973 33.0323C166.682 31.8003 167.653 30.8576 168.885 30.2043C170.117 29.5509 171.498 29.2243 173.029 29.2243C174.56 29.2243 175.941 29.5509 177.173 30.2043C178.405 30.8576 179.376 31.8003 180.085 33.0323C180.794 34.2456 181.149 35.6549 181.149 37.2603C181.149 38.8656 180.785 40.2843 180.057 41.5163C179.348 42.7296 178.368 43.6629 177.117 44.3163C175.885 44.9696 174.504 45.2963 172.973 45.2963ZM172.973 41.1523C173.888 41.1523 174.662 40.8163 175.297 40.1443C175.95 39.4723 176.277 38.5109 176.277 37.2603C176.277 36.0096 175.96 35.0483 175.325 34.3763C174.709 33.7043 173.944 33.3683 173.029 33.3683C172.096 33.3683 171.321 33.7043 170.705 34.3763C170.089 35.0296 169.781 35.9909 169.781 37.2603C169.781 38.5109 170.08 39.4723 170.677 40.1443C171.293 40.8163 172.058 41.1523 172.973 41.1523ZM199.117 29.4483V45.0723H194.329V42.9443C193.844 43.6349 193.181 44.1949 192.341 44.6243C191.52 45.0349 190.605 45.2403 189.597 45.2403C188.402 45.2403 187.348 44.9789 186.433 44.4563C185.518 43.9149 184.809 43.1403 184.305 42.1323C183.801 41.1243 183.549 39.9389 183.549 38.5763V29.4483H188.309V37.9323C188.309 38.9776 188.58 39.7896 189.121 40.3683C189.662 40.9469 190.39 41.2363 191.305 41.2363C192.238 41.2363 192.976 40.9469 193.517 40.3683C194.058 39.7896 194.329 38.9776 194.329 37.9323V29.4483H199.117ZM207.344 31.6603C207.811 30.9323 208.455 30.3443 209.276 29.8963C210.098 29.4483 211.059 29.2243 212.16 29.2243C213.448 29.2243 214.615 29.5509 215.66 30.2043C216.706 30.8576 217.527 31.7909 218.124 33.0043C218.74 34.2176 219.048 35.6269 219.048 37.2323C219.048 38.8376 218.74 40.2563 218.124 41.4883C217.527 42.7016 216.706 43.6443 215.66 44.3163C214.615 44.9696 213.448 45.2963 212.16 45.2963C211.078 45.2963 210.116 45.0723 209.276 44.6243C208.455 44.1763 207.811 43.5976 207.344 42.8883V52.5203H202.556V29.4483H207.344V31.6603ZM214.176 37.2323C214.176 36.0376 213.84 35.1043 213.168 34.4323C212.515 33.7416 211.703 33.3963 210.732 33.3963C209.78 33.3963 208.968 33.7416 208.296 34.4323C207.643 35.1229 207.316 36.0656 207.316 37.2603C207.316 38.4549 207.643 39.3976 208.296 40.0883C208.968 40.7789 209.78 41.1243 210.732 41.1243C211.684 41.1243 212.496 40.7789 213.168 40.0883C213.84 39.3789 214.176 38.4269 214.176 37.2323ZM226.348 24.3523V45.0723H221.56V24.3523H226.348ZM244.546 37.0083C244.546 37.4563 244.518 37.9229 244.462 38.4083H233.626C233.701 39.3789 234.009 40.1256 234.55 40.6483C235.11 41.1523 235.791 41.4043 236.594 41.4043C237.789 41.4043 238.619 40.9003 239.086 39.8923H244.182C243.921 40.9189 243.445 41.8429 242.754 42.6643C242.082 43.4856 241.233 44.1296 240.206 44.5963C239.179 45.0629 238.031 45.2963 236.762 45.2963C235.231 45.2963 233.869 44.9696 232.674 44.3163C231.479 43.6629 230.546 42.7296 229.874 41.5163C229.202 40.3029 228.866 38.8843 228.866 37.2603C228.866 35.6363 229.193 34.2176 229.846 33.0043C230.518 31.7909 231.451 30.8576 232.646 30.2043C233.841 29.5509 235.213 29.2243 236.762 29.2243C238.274 29.2243 239.618 29.5416 240.794 30.1763C241.97 30.8109 242.885 31.7163 243.538 32.8923C244.21 34.0683 244.546 35.4403 244.546 37.0083ZM239.646 35.7483C239.646 34.9269 239.366 34.2736 238.806 33.7883C238.246 33.3029 237.546 33.0603 236.706 33.0603C235.903 33.0603 235.222 33.2936 234.662 33.7603C234.121 34.2269 233.785 34.8896 233.654 35.7483H239.646ZM265.802 25.4163V29.2523H257.794V33.3963H263.786V37.1203H257.794V45.0723H253.006V25.4163H265.802ZM273.106 32.0523C273.666 31.1936 274.366 30.5216 275.206 30.0363C276.046 29.5323 276.979 29.2803 278.006 29.2803V34.3483H276.69C275.495 34.3483 274.599 34.6096 274.002 35.1323C273.405 35.6363 273.106 36.5323 273.106 37.8203V45.0723H268.318V29.4483H273.106V32.0523ZM282.703 27.8243C281.863 27.8243 281.172 27.5816 280.631 27.0963C280.108 26.5923 279.847 25.9763 279.847 25.2483C279.847 24.5016 280.108 23.8856 280.631 23.4003C281.172 22.8963 281.863 22.6443 282.703 22.6443C283.524 22.6443 284.196 22.8963 284.719 23.4003C285.26 23.8856 285.531 24.5016 285.531 25.2483C285.531 25.9763 285.26 26.5923 284.719 27.0963C284.196 27.5816 283.524 27.8243 282.703 27.8243ZM285.083 29.4483V45.0723H280.295V29.4483H285.083ZM303.28 37.0083C303.28 37.4563 303.252 37.9229 303.196 38.4083H292.36C292.435 39.3789 292.743 40.1256 293.284 40.6483C293.844 41.1523 294.526 41.4043 295.328 41.4043C296.523 41.4043 297.354 40.9003 297.82 39.8923H302.916C302.655 40.9189 302.179 41.8429 301.488 42.6643C300.816 43.4856 299.967 44.1296 298.94 44.5963C297.914 45.0629 296.766 45.2963 295.496 45.2963C293.966 45.2963 292.603 44.9696 291.408 44.3163C290.214 43.6629 289.28 42.7296 288.608 41.5163C287.936 40.3029 287.6 38.8843 287.6 37.2603C287.6 35.6363 287.927 34.2176 288.58 33.0043C289.252 31.7909 290.186 30.8576 291.38 30.2043C292.575 29.5509 293.947 29.2243 295.496 29.2243C297.008 29.2243 298.352 29.5416 299.528 30.1763C300.704 30.8109 301.619 31.7163 302.272 32.8923C302.944 34.0683 303.28 35.4403 303.28 37.0083ZM298.38 35.7483C298.38 34.9269 298.1 34.2736 297.54 33.7883C296.98 33.3029 296.28 33.0603 295.44 33.0603C294.638 33.0603 293.956 33.2936 293.396 33.7603C292.855 34.2269 292.519 34.8896 292.388 35.7483H298.38ZM315.326 29.2803C317.156 29.2803 318.612 29.8776 319.694 31.0723C320.796 32.2483 321.346 33.8723 321.346 35.9443V45.0723H316.586V36.5883C316.586 35.5429 316.316 34.7309 315.774 34.1523C315.233 33.5736 314.505 33.2843 313.59 33.2843C312.676 33.2843 311.948 33.5736 311.406 34.1523C310.865 34.7309 310.594 35.5429 310.594 36.5883V45.0723H305.806V29.4483H310.594V31.5203C311.08 30.8296 311.733 30.2883 312.554 29.8963C313.376 29.4856 314.3 29.2803 315.326 29.2803ZM323.722 37.2323C323.722 35.6269 324.02 34.2176 324.618 33.0043C325.234 31.7909 326.064 30.8576 327.11 30.2043C328.155 29.5509 329.322 29.2243 330.61 29.2243C331.636 29.2243 332.57 29.4389 333.41 29.8683C334.268 30.2976 334.94 30.8763 335.426 31.6043V24.3523H340.214V45.0723H335.426V42.8323C334.978 43.5789 334.334 44.1763 333.494 44.6243C332.672 45.0723 331.711 45.2963 330.61 45.2963C329.322 45.2963 328.155 44.9696 327.11 44.3163C326.064 43.6443 325.234 42.7016 324.618 41.4883C324.02 40.2563 323.722 38.8376 323.722 37.2323ZM335.426 37.2603C335.426 36.0656 335.09 35.1229 334.418 34.4323C333.764 33.7416 332.962 33.3963 332.01 33.3963C331.058 33.3963 330.246 33.7416 329.574 34.4323C328.92 35.1043 328.594 36.0376 328.594 37.2323C328.594 38.4269 328.92 39.3789 329.574 40.0883C330.246 40.7789 331.058 41.1243 332.01 41.1243C332.962 41.1243 333.764 40.7789 334.418 40.0883C335.09 39.3976 335.426 38.4549 335.426 37.2603ZM348.465 24.3523V45.0723H343.677V24.3523H348.465ZM367.895 29.4483L358.095 52.4923H352.943L356.527 44.5403L350.171 29.4483H355.519L359.131 39.2203L362.715 29.4483H367.895Z" fill="#180BA7"/>
</svg>
