<svg width="434" height="71" viewBox="0 0 434 71" fill="none" xmlns="http://www.w3.org/2000/svg">
<rect x="0.722922" y="0.65261" width="432.028" height="69.1766" rx="25.4518" fill="white"/>
<rect x="0.722922" y="0.65261" width="432.028" height="69.1766" rx="25.4518" stroke="#0A8500" stroke-width="1.30522"/>
<path d="M138.922 40.9632H145.194V44.6592H134.134V25.0032H138.922V40.9632ZM154.59 44.8832C153.06 44.8832 151.678 44.5565 150.446 43.9032C149.233 43.2498 148.272 42.3165 147.562 41.1032C146.872 39.8898 146.526 38.4712 146.526 36.8472C146.526 35.2418 146.881 33.8325 147.59 32.6192C148.3 31.3872 149.27 30.4445 150.502 29.7912C151.734 29.1378 153.116 28.8112 154.646 28.8112C156.177 28.8112 157.558 29.1378 158.79 29.7912C160.022 30.4445 160.993 31.3872 161.702 32.6192C162.412 33.8325 162.766 35.2418 162.766 36.8472C162.766 38.4525 162.402 39.8712 161.674 41.1032C160.965 42.3165 159.985 43.2498 158.734 43.9032C157.502 44.5565 156.121 44.8832 154.59 44.8832ZM154.59 40.7392C155.505 40.7392 156.28 40.4032 156.914 39.7312C157.568 39.0592 157.894 38.0978 157.894 36.8472C157.894 35.5965 157.577 34.6352 156.942 33.9632C156.326 33.2912 155.561 32.9552 154.646 32.9552C153.713 32.9552 152.938 33.2912 152.322 33.9632C151.706 34.6165 151.398 35.5778 151.398 36.8472C151.398 38.0978 151.697 39.0592 152.294 39.7312C152.91 40.4032 153.676 40.7392 154.59 40.7392ZM164.354 36.8472C164.354 35.2232 164.681 33.8045 165.334 32.5912C166.006 31.3778 166.93 30.4445 168.106 29.7912C169.301 29.1378 170.664 28.8112 172.194 28.8112C174.154 28.8112 175.788 29.3245 177.094 30.3512C178.42 31.3778 179.288 32.8245 179.698 34.6912H174.602C174.173 33.4965 173.342 32.8992 172.11 32.8992C171.233 32.8992 170.533 33.2445 170.01 33.9352C169.488 34.6072 169.226 35.5778 169.226 36.8472C169.226 38.1165 169.488 39.0965 170.01 39.7872C170.533 40.4592 171.233 40.7952 172.11 40.7952C173.342 40.7952 174.173 40.1978 174.602 39.0032H179.698C179.288 40.8325 178.42 42.2698 177.094 43.3152C175.769 44.3605 174.136 44.8832 172.194 44.8832C170.664 44.8832 169.301 44.5565 168.106 43.9032C166.93 43.2498 166.006 42.3165 165.334 41.1032C164.681 39.8898 164.354 38.4712 164.354 36.8472ZM181.307 36.8192C181.307 35.2138 181.606 33.8045 182.203 32.5912C182.819 31.3778 183.65 30.4445 184.695 29.7912C185.741 29.1378 186.907 28.8112 188.195 28.8112C189.297 28.8112 190.258 29.0352 191.079 29.4832C191.919 29.9312 192.563 30.5192 193.011 31.2472V29.0352H197.799V44.6592H193.011V42.4472C192.545 43.1752 191.891 43.7632 191.051 44.2112C190.23 44.6592 189.269 44.8832 188.167 44.8832C186.898 44.8832 185.741 44.5565 184.695 43.9032C183.65 43.2312 182.819 42.2885 182.203 41.0752C181.606 39.8432 181.307 38.4245 181.307 36.8192ZM193.011 36.8472C193.011 35.6525 192.675 34.7098 192.003 34.0192C191.35 33.3285 190.547 32.9832 189.595 32.9832C188.643 32.9832 187.831 33.3285 187.159 34.0192C186.506 34.6912 186.179 35.6245 186.179 36.8192C186.179 38.0138 186.506 38.9658 187.159 39.6752C187.831 40.3658 188.643 40.7112 189.595 40.7112C190.547 40.7112 191.35 40.3658 192.003 39.6752C192.675 38.9845 193.011 38.0418 193.011 36.8472ZM206.051 23.9392V44.6592H201.263V23.9392H206.051ZM220.243 25.0032V44.6592H215.455V25.0032H220.243ZM231.077 25.0032C233.149 25.0032 234.959 25.4138 236.509 26.2352C238.058 27.0565 239.253 28.2138 240.093 29.7072C240.951 31.1818 241.381 32.8898 241.381 34.8312C241.381 36.7538 240.951 38.4618 240.093 39.9552C239.253 41.4485 238.049 42.6058 236.481 43.4272C234.931 44.2485 233.13 44.6592 231.077 44.6592H223.713V25.0032H231.077ZM230.769 40.5152C232.579 40.5152 233.989 40.0205 234.997 39.0312C236.005 38.0418 236.509 36.6418 236.509 34.8312C236.509 33.0205 236.005 31.6112 234.997 30.6032C233.989 29.5952 232.579 29.0912 230.769 29.0912H228.501V40.5152H230.769ZM262.226 41.1872H254.89L253.714 44.6592H248.702L255.814 25.0032H261.358L268.47 44.6592H263.402L262.226 41.1872ZM260.994 37.4912L258.558 30.2952L256.15 37.4912H260.994ZM269.682 36.8472C269.682 35.2232 270.009 33.8045 270.662 32.5912C271.334 31.3778 272.258 30.4445 273.434 29.7912C274.629 29.1378 275.992 28.8112 277.522 28.8112C279.482 28.8112 281.116 29.3245 282.422 30.3512C283.748 31.3778 284.616 32.8245 285.026 34.6912H279.93C279.501 33.4965 278.67 32.8992 277.438 32.8992C276.561 32.8992 275.861 33.2445 275.338 33.9352C274.816 34.6072 274.554 35.5778 274.554 36.8472C274.554 38.1165 274.816 39.0965 275.338 39.7872C275.861 40.4592 276.561 40.7952 277.438 40.7952C278.67 40.7952 279.501 40.1978 279.93 39.0032H285.026C284.616 40.8325 283.748 42.2698 282.422 43.3152C281.097 44.3605 279.464 44.8832 277.522 44.8832C275.992 44.8832 274.629 44.5565 273.434 43.9032C272.258 43.2498 271.334 42.3165 270.662 41.1032C270.009 39.8898 269.682 38.4712 269.682 36.8472ZM286.636 36.8472C286.636 35.2232 286.962 33.8045 287.616 32.5912C288.288 31.3778 289.212 30.4445 290.388 29.7912C291.582 29.1378 292.945 28.8112 294.476 28.8112C296.436 28.8112 298.069 29.3245 299.376 30.3512C300.701 31.3778 301.569 32.8245 301.98 34.6912H296.884C296.454 33.4965 295.624 32.8992 294.392 32.8992C293.514 32.8992 292.814 33.2445 292.292 33.9352C291.769 34.6072 291.508 35.5778 291.508 36.8472C291.508 38.1165 291.769 39.0965 292.292 39.7872C292.814 40.4592 293.514 40.7952 294.392 40.7952C295.624 40.7952 296.454 40.1978 296.884 39.0032H301.98C301.569 40.8325 300.701 42.2698 299.376 43.3152C298.05 44.3605 296.417 44.8832 294.476 44.8832C292.945 44.8832 291.582 44.5565 290.388 43.9032C289.212 43.2498 288.288 42.3165 287.616 41.1032C286.962 39.8898 286.636 38.4712 286.636 36.8472ZM319.269 36.5952C319.269 37.0432 319.241 37.5098 319.185 37.9952H308.349C308.423 38.9658 308.731 39.7125 309.273 40.2352C309.833 40.7392 310.514 40.9912 311.317 40.9912C312.511 40.9912 313.342 40.4872 313.809 39.4792H318.905C318.643 40.5058 318.167 41.4298 317.477 42.2512C316.805 43.0725 315.955 43.7165 314.929 44.1832C313.902 44.6498 312.754 44.8832 311.485 44.8832C309.954 44.8832 308.591 44.5565 307.397 43.9032C306.202 43.2498 305.269 42.3165 304.597 41.1032C303.925 39.8898 303.589 38.4712 303.589 36.8472C303.589 35.2232 303.915 33.8045 304.569 32.5912C305.241 31.3778 306.174 30.4445 307.369 29.7912C308.563 29.1378 309.935 28.8112 311.485 28.8112C312.997 28.8112 314.341 29.1285 315.517 29.7632C316.693 30.3978 317.607 31.3032 318.261 32.4792C318.933 33.6552 319.269 35.0272 319.269 36.5952ZM314.369 35.3352C314.369 34.5138 314.089 33.8605 313.529 33.3752C312.969 32.8898 312.269 32.6472 311.429 32.6472C310.626 32.6472 309.945 32.8805 309.385 33.3472C308.843 33.8138 308.507 34.4765 308.377 35.3352H314.369ZM326.583 31.2472C327.049 30.5192 327.693 29.9312 328.515 29.4832C329.336 29.0352 330.297 28.8112 331.399 28.8112C332.687 28.8112 333.853 29.1378 334.899 29.7912C335.944 30.4445 336.765 31.3778 337.363 32.5912C337.979 33.8045 338.287 35.2138 338.287 36.8192C338.287 38.4245 337.979 39.8432 337.363 41.0752C336.765 42.2885 335.944 43.2312 334.899 43.9032C333.853 44.5565 332.687 44.8832 331.399 44.8832C330.316 44.8832 329.355 44.6592 328.515 44.2112C327.693 43.7632 327.049 43.1845 326.583 42.4752V52.1072H321.795V29.0352H326.583V31.2472ZM333.415 36.8192C333.415 35.6245 333.079 34.6912 332.407 34.0192C331.753 33.3285 330.941 32.9832 329.971 32.9832C329.019 32.9832 328.207 33.3285 327.535 34.0192C326.881 34.7098 326.555 35.6525 326.555 36.8472C326.555 38.0418 326.881 38.9845 327.535 39.6752C328.207 40.3658 329.019 40.7112 329.971 40.7112C330.923 40.7112 331.735 40.3658 332.407 39.6752C333.079 38.9658 333.415 38.0138 333.415 36.8192ZM349.507 40.5992V44.6592H347.071C345.335 44.6592 343.981 44.2392 343.011 43.3992C342.04 42.5405 341.555 41.1498 341.555 39.2272V33.0112H339.651V29.0352H341.555V25.2272H346.343V29.0352H349.479V33.0112H346.343V39.2832C346.343 39.7498 346.455 40.0858 346.679 40.2912C346.903 40.4965 347.276 40.5992 347.799 40.5992H349.507ZM366.901 36.5952C366.901 37.0432 366.874 37.5098 366.818 37.9952H355.982C356.056 38.9658 356.364 39.7125 356.906 40.2352C357.466 40.7392 358.147 40.9912 358.95 40.9912C360.144 40.9912 360.975 40.4872 361.442 39.4792H366.538C366.276 40.5058 365.8 41.4298 365.11 42.2512C364.438 43.0725 363.588 43.7165 362.562 44.1832C361.535 44.6498 360.387 44.8832 359.118 44.8832C357.587 44.8832 356.224 44.5565 355.03 43.9032C353.835 43.2498 352.902 42.3165 352.23 41.1032C351.558 39.8898 351.222 38.4712 351.222 36.8472C351.222 35.2232 351.548 33.8045 352.202 32.5912C352.874 31.3778 353.807 30.4445 355.002 29.7912C356.196 29.1378 357.568 28.8112 359.118 28.8112C360.63 28.8112 361.974 29.1285 363.15 29.7632C364.326 30.3978 365.24 31.3032 365.894 32.4792C366.566 33.6552 366.901 35.0272 366.901 36.5952ZM362.002 35.3352C362.002 34.5138 361.722 33.8605 361.162 33.3752C360.602 32.8898 359.902 32.6472 359.062 32.6472C358.259 32.6472 357.578 32.8805 357.018 33.3472C356.476 33.8138 356.14 34.4765 356.01 35.3352H362.002ZM368.475 36.8192C368.475 35.2138 368.774 33.8045 369.371 32.5912C369.987 31.3778 370.818 30.4445 371.863 29.7912C372.909 29.1378 374.075 28.8112 375.363 28.8112C376.39 28.8112 377.323 29.0258 378.163 29.4552C379.022 29.8845 379.694 30.4632 380.179 31.1912V23.9392H384.967V44.6592H380.179V42.4192C379.731 43.1658 379.087 43.7632 378.247 44.2112C377.426 44.6592 376.465 44.8832 375.363 44.8832C374.075 44.8832 372.909 44.5565 371.863 43.9032C370.818 43.2312 369.987 42.2885 369.371 41.0752C368.774 39.8432 368.475 38.4245 368.475 36.8192ZM380.179 36.8472C380.179 35.6525 379.843 34.7098 379.171 34.0192C378.518 33.3285 377.715 32.9832 376.763 32.9832C375.811 32.9832 374.999 33.3285 374.327 34.0192C373.674 34.6912 373.347 35.6245 373.347 36.8192C373.347 38.0138 373.674 38.9658 374.327 39.6752C374.999 40.3658 375.811 40.7112 376.763 40.7112C377.715 40.7112 378.518 40.3658 379.171 39.6752C379.843 38.9845 380.179 38.0418 380.179 36.8472Z" fill="#0A8500"/>
<rect x="44.1445" y="23.4932" width="44.3775" height="28.7148" fill="#0A8500"/>
<path d="M85.4628 15.6621H44.687C42.4358 15.6621 40.6094 17.5134 40.6094 19.7953V50.1054C40.6094 52.3873 42.4358 54.2386 44.687 54.2386H85.4628C87.7139 54.2386 89.5404 52.3873 89.5404 50.1054V19.7953C89.5404 17.5134 87.7139 15.6621 85.4628 15.6621ZM85.4628 50.1054H66.3661C66.4426 49.7179 66.4341 50.4154 66.4341 48.1766C66.4341 45.4383 63.8771 43.2167 60.7254 43.2167C59.808 43.2167 59.1369 43.9056 56.9197 43.9056C54.6346 43.9056 54.0824 43.2167 53.114 43.2167C49.9623 43.2167 47.4053 45.4383 47.4053 48.1766C47.4053 50.4154 47.3884 49.7179 47.4733 50.1054H44.687V25.3062H85.4628V50.1054ZM71.1912 43.2167H80.7056C81.0794 43.2167 81.3852 42.9067 81.3852 42.5279V41.1501C81.3852 40.7713 81.0794 40.4613 80.7056 40.4613H71.1912C70.8175 40.4613 70.5116 40.7713 70.5116 41.1501V42.5279C70.5116 42.9067 70.8175 43.2167 71.1912 43.2167ZM71.1912 37.7058H80.7056C81.0794 37.7058 81.3852 37.3958 81.3852 37.0169V35.6392C81.3852 35.2603 81.0794 34.9504 80.7056 34.9504H71.1912C70.8175 34.9504 70.5116 35.2603 70.5116 35.6392V37.0169C70.5116 37.3958 70.8175 37.7058 71.1912 37.7058ZM71.1912 32.1949H80.7056C81.0794 32.1949 81.3852 31.8849 81.3852 31.506V30.1283C81.3852 29.7494 81.0794 29.4394 80.7056 29.4394H71.1912C70.8175 29.4394 70.5116 29.7494 70.5116 30.1283V31.506C70.5116 31.8849 70.8175 32.1949 71.1912 32.1949ZM56.9197 40.4613C59.9184 40.4613 62.3565 37.99 62.3565 34.9504C62.3565 31.9107 59.9184 29.4394 56.9197 29.4394C53.921 29.4394 51.4829 31.9107 51.4829 34.9504C51.4829 37.99 53.921 40.4613 56.9197 40.4613Z" fill="#6BD862"/>
</svg>
