<svg width="57" height="54" viewBox="0 0 57 54" fill="none" xmlns="http://www.w3.org/2000/svg">
<path d="M35.9347 24.0813C33.6453 21.4857 32.5018 20.188 31.1843 20.3859C29.8691 20.5861 29.2544 22.1522 28.0251 25.2845L27.705 26.094C27.3571 26.9848 27.1808 27.4292 26.8398 27.7569C26.5011 28.0847 26.0326 28.2584 25.1002 28.606L24.2489 28.9205C20.9621 30.1413 19.3176 30.7528 19.1297 32C18.9441 33.2472 20.3358 34.3074 23.1216 36.4235L23.8407 36.9734C24.6339 37.5739 25.0306 37.8753 25.2579 38.2866C25.4898 38.6979 25.5246 39.1753 25.5965 40.1277L25.6638 40.9944C25.9189 44.3444 26.0488 46.0205 27.248 46.5924C28.4472 47.1643 29.9248 46.2515 32.8775 44.4302L33.6406 43.9573C34.4803 43.4404 34.9002 43.1808 35.3803 43.106C35.8628 43.0334 36.3545 43.1544 37.331 43.3964L38.224 43.6163C41.6685 44.4654 43.3919 44.8921 44.3221 43.9969C45.2499 43.1016 44.7697 41.4805 43.8095 38.2338L43.5589 37.3979C43.2876 36.4741 43.1507 36.0122 43.218 35.5568C43.2876 35.0993 43.5543 34.699 44.0855 33.8939L44.5726 33.1636C46.4444 30.3371 47.3792 28.9249 46.7529 27.8009C46.129 26.6769 44.3569 26.5845 40.8103 26.4041L39.8918 26.3557C38.8851 26.3052 38.3794 26.2788 37.9411 26.0698C37.5003 25.8608 37.1756 25.4913 36.5261 24.7522L35.9347 24.0813Z" fill="#FF6600"/>
<path opacity="0.5" d="M24.5216 9.92263C27.5741 6.46039 29.1003 4.72927 30.8539 4.99543C32.6075 5.26159 33.4286 7.34905 35.0685 11.5262L35.4929 12.6062C35.9592 13.794 36.1934 14.3879 36.6457 14.8234C37.1004 15.2612 37.722 15.4921 38.9676 15.954L40.1018 16.3764C44.4857 18.0041 46.6777 18.818 46.9259 20.4809C47.1764 22.146 45.3185 23.556 41.6049 26.3803L40.6446 27.1106C39.5892 27.9135 39.0604 28.3138 38.7542 28.8637C38.4503 29.4136 38.4016 30.0471 38.3042 31.3163L38.2161 32.4733C37.8728 36.9408 37.7011 39.1757 36.103 39.9367C34.5025 40.7 32.5355 39.4836 28.597 37.053L27.5787 36.4239C26.4607 35.7332 25.9017 35.3901 25.2592 35.2911C24.6167 35.1921 23.9649 35.3527 22.659 35.676L21.4691 35.9686C16.8764 37.1036 14.5778 37.6689 13.3391 36.4767C12.1005 35.2845 12.7407 33.12 14.0234 28.7955L14.3528 27.6759C14.7169 26.4463 14.9002 25.8326 14.8097 25.2233C14.7169 24.614 14.3621 24.0795 13.6523 23.0061L13.0075 22.0316C10.5093 18.2637 9.26142 16.3786 10.0918 14.8828C10.9268 13.3827 13.2904 13.2617 18.0199 13.0175L19.2423 12.9559C20.5877 12.8877 21.258 12.8525 21.8448 12.5732C22.4294 12.2938 22.8631 11.8033 23.7306 10.8179L24.5193 9.92263H24.5216Z" fill="#FF6803"/>
</svg>
