<svg width="31" height="31" viewBox="0 0 31 31" fill="none" xmlns="http://www.w3.org/2000/svg">
<g opacity="0.32">
<path fill-rule="evenodd" clip-rule="evenodd" d="M6.78125 5.8125H10.6562C10.9132 5.8125 11.1596 5.91456 11.3413 6.09624C11.5229 6.27792 11.625 6.52432 11.625 6.78125V10.6562C11.625 10.9132 11.5229 11.1596 11.3413 11.3413C11.1596 11.5229 10.9132 11.625 10.6562 11.625H6.78125C6.52432 11.625 6.27792 11.5229 6.09624 11.3413C5.91456 11.1596 5.8125 10.9132 5.8125 10.6562V6.78125C5.8125 6.52432 5.91456 6.27792 6.09624 6.09624C6.27792 5.91456 6.52432 5.8125 6.78125 5.8125ZM2.90625 6.78125C2.90625 5.75354 3.31451 4.76791 4.04121 4.04121C4.76791 3.31451 5.75354 2.90625 6.78125 2.90625H10.6562C11.684 2.90625 12.6696 3.31451 13.3963 4.04121C14.123 4.76791 14.5312 5.75354 14.5312 6.78125V10.6562C14.5312 11.684 14.123 12.6696 13.3963 13.3963C12.6696 14.123 11.684 14.5312 10.6562 14.5312H6.78125C5.75354 14.5312 4.76791 14.123 4.04121 13.3963C3.31451 12.6696 2.90625 11.684 2.90625 10.6562V6.78125ZM20.3438 5.8125H24.2188C24.4757 5.8125 24.7221 5.91456 24.9038 6.09624C25.0854 6.27792 25.1875 6.52432 25.1875 6.78125V10.6562C25.1875 10.9132 25.0854 11.1596 24.9038 11.3413C24.7221 11.5229 24.4757 11.625 24.2188 11.625H20.3438C20.0868 11.625 19.8404 11.5229 19.6587 11.3413C19.4771 11.1596 19.375 10.9132 19.375 10.6562V6.78125C19.375 6.52432 19.4771 6.27792 19.6587 6.09624C19.8404 5.91456 20.0868 5.8125 20.3438 5.8125ZM16.4688 6.78125C16.4688 5.75354 16.877 4.76791 17.6037 4.04121C18.3304 3.31451 19.316 2.90625 20.3438 2.90625H24.2188C25.2465 2.90625 26.2321 3.31451 26.9588 4.04121C27.6855 4.76791 28.0938 5.75354 28.0938 6.78125V10.6562C28.0938 11.684 27.6855 12.6696 26.9588 13.3963C26.2321 14.123 25.2465 14.5312 24.2188 14.5312H20.3438C19.316 14.5312 18.3304 14.123 17.6037 13.3963C16.877 12.6696 16.4688 11.684 16.4688 10.6562V6.78125ZM10.6562 19.375H6.78125C6.52432 19.375 6.27792 19.4771 6.09624 19.6587C5.91456 19.8404 5.8125 20.0868 5.8125 20.3438V24.2188C5.8125 24.4757 5.91456 24.7221 6.09624 24.9038C6.27792 25.0854 6.52432 25.1875 6.78125 25.1875H10.6562C10.9132 25.1875 11.1596 25.0854 11.3413 24.9038C11.5229 24.7221 11.625 24.4757 11.625 24.2188V20.3438C11.625 20.0868 11.5229 19.8404 11.3413 19.6587C11.1596 19.4771 10.9132 19.375 10.6562 19.375ZM6.78125 16.4688C5.75354 16.4688 4.76791 16.877 4.04121 17.6037C3.31451 18.3304 2.90625 19.316 2.90625 20.3438V24.2188C2.90625 25.2465 3.31451 26.2321 4.04121 26.9588C4.76791 27.6855 5.75354 28.0938 6.78125 28.0938H10.6562C11.684 28.0938 12.6696 27.6855 13.3963 26.9588C14.123 26.2321 14.5312 25.2465 14.5312 24.2188V20.3438C14.5312 19.316 14.123 18.3304 13.3963 17.6037C12.6696 16.877 11.684 16.4688 10.6562 16.4688H6.78125ZM20.3438 19.375H24.2188C24.4757 19.375 24.7221 19.4771 24.9038 19.6587C25.0854 19.8404 25.1875 20.0868 25.1875 20.3438V24.2188C25.1875 24.4757 25.0854 24.7221 24.9038 24.9038C24.7221 25.0854 24.4757 25.1875 24.2188 25.1875H20.3438C20.0868 25.1875 19.8404 25.0854 19.6587 24.9038C19.4771 24.7221 19.375 24.4757 19.375 24.2188V20.3438C19.375 20.0868 19.4771 19.8404 19.6587 19.6587C19.8404 19.4771 20.0868 19.375 20.3438 19.375ZM16.4688 20.3438C16.4688 19.316 16.877 18.3304 17.6037 17.6037C18.3304 16.877 19.316 16.4688 20.3438 16.4688H24.2188C25.2465 16.4688 26.2321 16.877 26.9588 17.6037C27.6855 18.3304 28.0938 19.316 28.0938 20.3438V24.2188C28.0938 25.2465 27.6855 26.2321 26.9588 26.9588C26.2321 27.6855 25.2465 28.0938 24.2188 28.0938H20.3438C19.316 28.0938 18.3304 27.6855 17.6037 26.9588C16.877 26.2321 16.4688 25.2465 16.4688 24.2188V20.3438Z" fill="black"/>
</g>
</svg>
