<svg width="33" height="19" viewBox="0 0 33 19" fill="none" xmlns="http://www.w3.org/2000/svg">
<path d="M0.755653 5.36621C0.869114 3.87502 1.44452 2.708 2.48187 1.86515C3.51923 1.0223 4.86455 0.600872 6.51783 0.600872C7.62002 0.600872 8.56822 0.80348 9.36245 1.2087C10.1729 1.5977 10.7807 2.13259 11.1859 2.81335C11.6073 3.49412 11.8181 4.26403 11.8181 5.12309C11.8181 6.12802 11.5263 6.99518 10.9428 7.72457C10.3755 8.45396 9.62989 8.92401 8.70599 9.13472V9.25629C9.75956 9.51563 10.5943 10.0262 11.2102 10.788C11.8262 11.5498 12.1341 12.5466 12.1341 13.7785C12.1341 14.7024 11.9234 15.5371 11.502 16.2827C11.0806 17.0121 10.4484 17.5875 9.60557 18.009C8.76272 18.4304 7.74968 18.6411 6.56645 18.6411C4.84834 18.6411 3.43818 18.1954 2.336 17.3039C1.23381 16.3962 0.61788 15.1157 0.488211 13.4624H2.62775C2.74121 14.435 3.13832 15.2292 3.81909 15.8451C4.49985 16.461 5.40753 16.769 6.54214 16.769C7.67675 16.769 8.5358 16.4772 9.11931 15.8937C9.71903 15.294 10.0189 14.5241 10.0189 13.584C10.0189 12.3683 9.61368 11.4931 8.80325 10.9582C7.99281 10.4233 6.76906 10.1559 5.13199 10.1559H4.57279V8.30808H5.1563C6.6475 8.29187 7.774 8.04875 8.5358 7.57869C9.29761 7.09244 9.67851 6.34684 9.67851 5.3419C9.67851 4.48284 9.39486 3.79398 8.82756 3.2753C8.27647 2.75662 7.48224 2.49728 6.44489 2.49728C5.43995 2.49728 4.62952 2.75662 4.01359 3.2753C3.39766 3.79398 3.03297 4.49095 2.91951 5.36621H0.755653ZM16.1912 18.6654C15.7697 18.6654 15.4131 18.5195 15.1214 18.2278C14.8296 17.936 14.6838 17.5794 14.6838 17.158C14.6838 16.7366 14.8296 16.38 15.1214 16.0882C15.4131 15.7965 15.7697 15.6506 16.1912 15.6506C16.5964 15.6506 16.9368 15.7965 17.2123 16.0882C17.5041 16.38 17.6499 16.7366 17.6499 17.158C17.6499 17.5794 17.5041 17.936 17.2123 18.2278C16.9368 18.5195 16.5964 18.6654 16.1912 18.6654ZM31.4344 2.86198H22.9006V8.40534C23.2734 7.88666 23.8245 7.46523 24.5539 7.14106C25.2833 6.80068 26.0694 6.63049 26.9122 6.63049C28.2575 6.63049 29.3516 6.91414 30.1945 7.48144C31.0373 8.03254 31.6371 8.75382 31.9936 9.6453C32.3664 10.5206 32.5528 11.4526 32.5528 12.4413C32.5528 13.6083 32.334 14.6538 31.8964 15.5777C31.4588 16.5016 30.7861 17.2309 29.8784 17.7658C28.9869 18.3007 27.8766 18.5682 26.5475 18.5682C24.8456 18.5682 23.4679 18.1305 22.4143 17.2553C21.3608 16.38 20.7205 15.213 20.4936 13.7542H22.6575C22.8682 14.6781 23.3139 15.3994 23.9947 15.918C24.6754 16.4367 25.5345 16.6961 26.5718 16.6961C27.8523 16.6961 28.8167 16.3152 29.4651 15.5533C30.1134 14.7753 30.4376 13.7542 30.4376 12.4899C30.4376 11.2256 30.1134 10.2531 29.4651 9.57236C28.8167 8.87539 27.8604 8.5269 26.5962 8.5269C25.7371 8.5269 24.9834 8.73761 24.3351 9.15904C23.7029 9.56425 23.241 10.1235 22.9492 10.8366H20.8583V0.916941H31.4344V2.86198Z" fill="white"/>
</svg>
